<svg width="32" height="32" viewBox="0 0 32 32" fill="none" xmlns="http://www.w3.org/2000/svg">
<path fill-rule="evenodd" clip-rule="evenodd" d="M3.91176 17H13.0882C14.1435 17 15 17.8311 15 18.855V28.145C15 29.169 14.1435 30 13.0882 30H3.91176C2.85647 30 2 29.169 2 28.145V18.855C2 17.8311 2.85647 17 3.91176 17Z" fill="#F87F22"/>
<path fill-rule="evenodd" clip-rule="evenodd" d="M3.91176 2H13.0882C14.1435 2 15 2.83105 15 3.85502V13.145C15 14.169 14.1435 15 13.0882 15H3.91176C2.85647 15 2 14.169 2 13.145V3.85502C2 2.83105 2.85647 2 3.91176 2Z" fill="#F87F22"/>
<path fill-rule="evenodd" clip-rule="evenodd" d="M18.9118 17H28.0882C29.1435 17 30 17.8311 30 18.855V28.145C30 29.169 29.1435 30 28.0882 30H18.9118C17.8565 30 17 29.169 17 28.145V18.855C17 17.8311 17.8565 17 18.9118 17Z" fill="#F87F22"/>
</svg>
